<svg width="16" height="16" viewBox="0 0 16 16" fill="none" xmlns="http://www.w3.org/2000/svg">
<path fill-rule="evenodd" clip-rule="evenodd" d="M10.5971 2C12.857 2.83086 13.2828 5.81793 11.6802 7.45424C13.4163 8.2724 14.367 12.6363 10.7461 14H4.06808C3.4275 13.9998 3.00013 13.4546 3 12.9093V3.09068C3.00012 2.43509 3.53405 2.00017 4.06808 2H10.5971ZM5.93806 8.8178C5.34801 8.81781 4.86998 9.30683 4.86998 9.90932C4.87009 10.5117 5.34808 11 5.93806 11C6.52804 11 7.00602 10.5117 7.00614 9.90932C7.00614 9.30683 6.52811 8.8178 5.93806 8.8178ZM9.14314 8.8178C8.55313 8.81786 8.07506 9.30686 8.07506 9.90932C8.07517 10.5117 8.5532 10.9999 9.14314 11C9.73312 11 10.2111 10.5117 10.2112 9.90932C10.2112 9.30683 9.73319 8.8178 9.14314 8.8178ZM5.93806 5.54576C5.34801 5.54577 4.86998 6.03395 4.86998 6.63644C4.87002 7.23889 5.34804 7.72711 5.93806 7.72712C6.52809 7.72712 7.0061 7.2389 7.00614 6.63644C7.00614 6.03395 6.52811 5.54576 5.93806 5.54576ZM9.14314 5.54576C8.55313 5.54581 8.07506 6.03398 8.07506 6.63644C8.07509 7.23887 8.55315 7.72707 9.14314 7.72712C9.73317 7.72712 10.2112 7.2389 10.2112 6.63644C10.2112 6.03395 9.73319 5.54576 9.14314 5.54576Z" fill="#A1A1AA"/>
</svg>
