<svg width="16" height="16" viewBox="0 0 16 16" fill="none" xmlns="http://www.w3.org/2000/svg">
<path fill-rule="evenodd" clip-rule="evenodd" d="M10.3309 3C12.2141 3.69239 12.569 6.18161 11.2335 7.5452C12.6803 8.227 13.4725 11.8635 10.4551 13H4.89007C4.35625 12.9999 4.00011 12.5455 4 12.0911V3.9089C4.0001 3.36257 4.44504 3.00014 4.89007 3H10.3309ZM6.44838 8.6815C5.95668 8.68151 5.55831 9.08903 5.55831 9.5911C5.55841 10.0931 5.95674 10.5 6.44838 10.5C6.94003 10.5 7.33835 10.0931 7.33845 9.5911C7.33845 9.08902 6.94009 8.6815 6.44838 8.6815ZM9.11928 8.6815C8.62761 8.68155 8.22921 9.08905 8.22921 9.5911C8.22931 10.0931 8.62767 10.5 9.11928 10.5C9.61093 10.5 10.0093 10.0931 10.0093 9.5911C10.0093 9.08902 9.61099 8.6815 9.11928 8.6815ZM6.44838 5.9548C5.95668 5.95481 5.55831 6.36163 5.55831 6.8637C5.55835 7.36574 5.9567 7.77259 6.44838 7.7726C6.94007 7.7726 7.33842 7.36575 7.33845 6.8637C7.33845 6.36162 6.94009 5.9548 6.44838 5.9548ZM9.11928 5.9548C8.62761 5.95484 8.22921 6.36165 8.22921 6.8637C8.22925 7.36572 8.62763 7.77256 9.11928 7.7726C9.61097 7.7726 10.0093 7.36575 10.0093 6.8637C10.0093 6.36162 9.61099 5.9548 9.11928 5.9548Z" fill="black"/>
</svg>
