<svg width="44" height="44" viewBox="0 0 44 44" fill="none" xmlns="http://www.w3.org/2000/svg">
<path fill-rule="evenodd" clip-rule="evenodd" d="M28.9927 7C34.6424 9.07716 35.7069 16.5448 31.7006 20.6356C36.0408 22.681 38.4175 33.5906 29.3652 37H12.6702C11.0688 36.9995 10.0003 35.6365 10 34.2733V9.7267C10.0003 8.08772 11.3351 7.00043 12.6702 7H28.9927ZM17.3451 24.0445C15.87 24.0445 14.6749 25.2671 14.6749 26.7733C14.6752 28.2793 15.8702 29.5 17.3451 29.5C18.8201 29.5 20.0151 28.2793 20.0153 26.7733C20.0153 25.2671 18.8203 24.0445 17.3451 24.0445ZM25.3578 24.0445C23.8828 24.0446 22.6876 25.2672 22.6876 26.7733C22.6879 28.2792 23.883 29.4999 25.3578 29.5C26.8328 29.5 28.0278 28.2793 28.028 26.7733C28.028 25.2671 26.833 24.0445 25.3578 24.0445ZM17.3451 15.8644C15.87 15.8644 14.6749 17.0849 14.6749 18.5911C14.675 20.0972 15.8701 21.3178 17.3451 21.3178C18.8202 21.3178 20.0152 20.0972 20.0153 18.5911C20.0153 17.0849 18.8203 15.8644 17.3451 15.8644ZM25.3578 15.8644C23.8828 15.8645 22.6876 17.085 22.6876 18.5911C22.6877 20.0972 23.8829 21.3177 25.3578 21.3178C26.8329 21.3178 28.0279 20.0972 28.028 18.5911C28.028 17.0849 26.833 15.8644 25.3578 15.8644Z" fill="#18181B"/>
</svg>
