<svg width="44" height="44" viewBox="0 0 44 44" fill="none" xmlns="http://www.w3.org/2000/svg">
<g clip-path="url(#clip0_1680_1531)">
<circle cx="22" cy="22" r="22" fill="white"/>
<path fill-rule="evenodd" clip-rule="evenodd" d="M27.8642 10C32.2857 11.6617 33.1188 17.6359 29.9834 20.9085C33.3801 22.5448 35.2401 31.2725 28.1557 34H15.0898C13.8364 33.9996 13.0003 32.9092 13 31.8186V12.1814C13.0002 10.8702 14.0449 10.0003 15.0898 10H27.8642ZM18.7485 23.6356C17.594 23.6356 16.6587 24.6137 16.6587 25.8186C16.6589 27.0234 17.5942 28 18.7485 28C19.9028 28 20.838 27.0234 20.8382 25.8186C20.8382 24.6137 19.9029 23.6356 18.7485 23.6356ZM25.0194 23.6356C23.865 23.6357 22.9296 24.6137 22.9296 25.8186C22.9299 27.0234 23.8651 27.9999 25.0194 28C26.1737 28 27.1089 27.0234 27.1092 25.8186C27.1092 24.6137 26.1739 23.6356 25.0194 23.6356ZM18.7485 17.0915C17.594 17.0915 16.6587 18.0679 16.6587 19.2729C16.6588 20.4778 17.5941 21.4542 18.7485 21.4542C19.9029 21.4542 20.8382 20.4778 20.8382 19.2729C20.8382 18.0679 19.9029 17.0915 18.7485 17.0915ZM25.0194 17.0915C23.865 17.0916 22.9296 18.068 22.9296 19.2729C22.9297 20.4777 23.8651 21.4541 25.0194 21.4542C26.1738 21.4542 27.1091 20.4778 27.1092 19.2729C27.1092 18.0679 26.1739 17.0915 25.0194 17.0915Z" fill="#18181B"/>
</g>
<defs>
<clipPath id="clip0_1680_1531">
<rect width="44" height="44" fill="white"/>
</clipPath>
</defs>
</svg>
