<svg width="16" height="16" viewBox="0 0 16 16" fill="none" xmlns="http://www.w3.org/2000/svg">
<path fill-rule="evenodd" clip-rule="evenodd" d="M11.1433 1C13.7798 1.96934 14.2766 5.45425 12.407 7.36328C14.4324 8.3178 15.5415 13.409 11.3171 15H3.52609C2.77875 14.9998 2.28015 14.3637 2.28 13.7275V2.27246C2.28015 1.5076 2.90306 1.0002 3.52609 1H11.1433ZM5.70774 8.9541C5.01935 8.95411 4.46164 9.52464 4.46164 10.2275C4.46178 10.9303 5.01943 11.5 5.70774 11.5C6.39605 11.5 6.9537 10.9303 6.95383 10.2275C6.95383 9.52463 6.39613 8.9541 5.70774 8.9541ZM9.44699 8.9541C8.75865 8.95416 8.2009 9.52467 8.2009 10.2275C8.20103 10.9303 8.75873 11.4999 9.44699 11.5C10.1353 11.5 10.693 10.9303 10.6931 10.2275C10.6931 9.52463 10.1354 8.9541 9.44699 8.9541ZM5.70774 5.13672C5.01935 5.13673 4.46164 5.70628 4.46164 6.40918C4.46169 7.11204 5.01938 7.68163 5.70774 7.68164C6.3961 7.68164 6.95378 7.11205 6.95383 6.40918C6.95383 5.70627 6.39613 5.13672 5.70774 5.13672ZM9.44699 5.13672C8.75865 5.13678 8.2009 5.70631 8.2009 6.40918C8.20094 7.11201 8.75868 7.68158 9.44699 7.68164C10.1354 7.68164 10.693 7.11205 10.6931 6.40918C10.6931 5.70627 10.1354 5.13672 9.44699 5.13672Z" fill="#1A202C"/>
</svg>
